<svg width="56" height="56" viewBox="0 0 56 56" fill="none" xmlns="http://www.w3.org/2000/svg">
<g clip-path="url(#clip0_1_124)">
<path d="M42.669 19.372L40.0715 16.7735C39.9067 16.6078 39.7106 16.4765 39.4947 16.3871C39.2788 16.2976 39.0473 16.2519 38.8136 16.2525C38.3377 16.2525 37.8908 16.4373 37.5546 16.7735L37.5138 16.8143L29.6387 8.93814L29.6795 8.89732C30.0157 8.56216 30.2005 8.11421 30.2005 7.63941C30.2005 7.1646 30.0157 6.71665 29.6795 6.38042L27.081 3.78296C26.7469 3.44979 26.2943 3.2627 25.8225 3.2627C25.3507 3.2627 24.8981 3.44979 24.5641 3.78296L18.0693 10.2777C17.7362 10.6118 17.5491 11.0643 17.5491 11.5361C17.5491 12.0079 17.7362 12.4605 18.0693 12.7946L20.6668 15.3931C21.0009 15.7263 21.4534 15.9134 21.9253 15.9134C22.3971 15.9134 22.8496 15.7263 23.1837 15.3931L23.2245 15.3523L24.6049 16.7327L23.2653 18.0722C23.0395 18.2965 22.8784 18.5775 22.799 18.8857C22.7196 19.1939 22.7248 19.5177 22.8142 19.8232L1.44581 41.1894C1.1946 41.4394 0.995475 41.7368 0.859949 42.0642C0.724423 42.3917 0.655192 42.7428 0.656262 43.0972C0.656262 43.818 0.936633 44.4959 1.44689 45.0061C1.6973 45.2567 1.99475 45.4553 2.32214 45.5907C2.64954 45.726 3.00044 45.7953 3.3547 45.7946C4.04542 45.7946 4.73615 45.5314 5.26251 45.0061L26.6287 23.6399C26.7877 23.6839 26.9521 23.7086 27.1218 23.7086C27.5966 23.7086 28.0435 23.5239 28.3797 23.1877L29.7192 21.8481L31.0996 23.2285L31.0599 23.2682C30.8939 23.4331 30.7623 23.6293 30.6727 23.8454C30.583 24.0615 30.5372 24.2932 30.5378 24.5272C30.5378 25.002 30.7226 25.4489 31.0588 25.7851L33.6573 28.3836C33.9936 28.7199 34.4404 28.9046 34.9163 28.9046C35.3922 28.9046 35.838 28.7199 36.1742 28.3836L42.67 21.8878C43.0063 21.5527 43.191 21.1058 43.191 20.6299C43.191 20.1541 43.0063 19.7072 42.67 19.372H42.669ZM4.04542 43.7879C3.90855 43.9234 3.73474 44.0153 3.5458 44.0523C3.35685 44.0893 3.16118 44.0697 2.98334 43.996C2.8055 43.9222 2.65341 43.7975 2.54614 43.6376C2.43887 43.4778 2.38121 43.2898 2.38038 43.0972C2.38038 42.8373 2.48136 42.5923 2.66505 42.4076L23.8734 21.1982L25.2537 22.5786L4.04435 43.7879H4.04542ZM27.1626 21.9706C27.1594 21.9738 27.1465 21.9867 27.1229 21.9867C27.0992 21.9867 27.0863 21.9738 27.082 21.9695L24.4824 19.372C24.4781 19.3688 24.4663 19.3559 24.4663 19.3323C24.4663 19.3086 24.4781 19.2958 24.4824 19.2915L25.822 17.9519L28.5022 20.631L27.1615 21.9706H27.1626ZM41.4529 20.6708L34.9571 27.1655C34.9528 27.1698 34.941 27.1827 34.9174 27.1827C34.8938 27.1827 34.8809 27.1698 34.8766 27.1655L32.278 24.568C32.2737 24.5637 32.2619 24.5508 32.2619 24.5272C32.2619 24.5036 32.2737 24.4907 32.278 24.4864L32.9279 23.8365C33.0891 23.675 33.1796 23.4561 33.1796 23.2279C33.1796 22.9998 33.0891 22.7809 32.9279 22.6194L24.4438 14.1341L26.4321 12.1458C26.5168 12.0669 26.5847 11.9718 26.6318 11.8662C26.6789 11.7605 26.7043 11.6465 26.7064 11.5308C26.7085 11.4151 26.6872 11.3002 26.6439 11.193C26.6007 11.0857 26.5362 10.9882 26.4545 10.9064C26.3727 10.8245 26.2753 10.76 26.168 10.7166C26.0608 10.6733 25.9459 10.6519 25.8302 10.6539C25.7146 10.6559 25.6005 10.6811 25.4948 10.7282C25.3891 10.7752 25.294 10.843 25.215 10.9276L21.9666 14.175C21.9451 14.1975 21.9086 14.1975 21.886 14.175L19.2875 11.5775C19.2768 11.5666 19.2707 11.552 19.2707 11.5367C19.2707 11.5214 19.2768 11.5067 19.2875 11.4959L25.7833 5.00113C25.8048 4.97857 25.8413 4.97857 25.8639 5.00113L28.4624 7.59859C28.4839 7.62007 28.4839 7.65767 28.4624 7.68023L27.8157 8.32583L27.8018 8.34087C27.6453 8.50333 27.5587 8.72068 27.5607 8.94624C27.5628 9.1718 27.6532 9.38758 27.8125 9.54722L36.2978 18.0325L34.3083 20.0209C34.2281 20.1007 34.1644 20.1956 34.121 20.3001C34.0776 20.4047 34.0552 20.5167 34.0552 20.6299C34.0552 20.7431 34.0776 20.8552 34.121 20.9597C34.1644 21.0643 34.2281 21.1592 34.3083 21.239C34.4698 21.4002 34.6887 21.4907 34.9169 21.4907C35.145 21.4907 35.3639 21.4002 35.5254 21.239L38.7738 17.9917C38.7781 17.9874 38.79 17.9745 38.8147 17.9745C38.8394 17.9745 38.8512 17.9874 38.8544 17.9917L41.4529 20.5891C41.4572 20.5934 41.4701 20.6063 41.4701 20.6299C41.4701 20.6536 41.4572 20.6665 41.4529 20.6708ZM55.6305 50.7607L55.0601 48.4791C54.9148 47.8948 54.5781 47.376 54.1036 47.0055C53.6291 46.635 53.0442 46.4341 52.4422 46.4348H51.9824V44.5399C51.9824 43.5591 51.1832 42.7599 50.2025 42.7599H37.3408C36.8689 42.7605 36.4165 42.9482 36.0828 43.2819C35.7491 43.6156 35.5614 44.068 35.5609 44.5399V46.4348H35.1011C34.4991 46.4341 33.9141 46.635 33.4397 47.0055C32.9652 47.376 32.6284 47.8948 32.4832 48.4791L31.9128 50.7618C31.8809 50.8888 31.8785 51.0214 31.9056 51.1494C31.9327 51.2775 31.9887 51.3977 32.0693 51.5009C32.1499 51.6041 32.253 51.6875 32.3707 51.7449C32.4884 51.8022 32.6176 51.8319 32.7485 51.8317H54.7937C54.9245 51.8317 55.0537 51.8018 55.1713 51.7444C55.2889 51.6871 55.3919 51.6036 55.4724 51.5005C55.553 51.3974 55.609 51.2773 55.6362 51.1493C55.6634 51.0213 55.6611 50.8887 55.6294 50.7618L55.6305 50.7607ZM33.8518 50.1086L34.1558 48.8959C34.2083 48.6848 34.3299 48.4975 34.5012 48.3635C34.6725 48.2296 34.8836 48.1568 35.1011 48.1568H38.2604C38.4834 48.1489 38.6948 48.0547 38.8498 47.8941C39.0048 47.7335 39.0915 47.519 39.0915 47.2958C39.0915 47.0726 39.0048 46.8581 38.8498 46.6975C38.6948 46.5369 38.4834 46.4427 38.2604 46.4348H37.285V44.5399C37.285 44.5077 37.3108 44.483 37.3419 44.483H50.2025C50.2347 44.483 50.2594 44.5077 50.2594 44.5399V46.4348H41.9342C41.7111 46.4427 41.4998 46.5369 41.3448 46.6975C41.1897 46.8581 41.1031 47.0726 41.1031 47.2958C41.1031 47.519 41.1897 47.7335 41.3448 47.8941C41.4998 48.0547 41.7111 48.1489 41.9342 48.1568H52.4422C52.8901 48.1568 53.2801 48.4608 53.3886 48.8959L53.6915 50.1097H33.8518V50.1086ZM43.7722 34.4927C43.5437 34.4927 43.3246 34.5835 43.163 34.7451C43.0014 34.9066 42.9107 35.1258 42.9107 35.3543V39.9476C42.9107 40.1761 43.0014 40.3952 43.163 40.5568C43.3246 40.7184 43.5437 40.8091 43.7722 40.8091C44.0007 40.8091 44.2198 40.7184 44.3814 40.5568C44.5429 40.3952 44.6337 40.1761 44.6337 39.9476V35.3543C44.6337 35.1258 44.5429 34.9066 44.3814 34.7451C44.2198 34.5835 44.0007 34.4927 43.7722 34.4927ZM48.7501 37.3394C48.6489 37.2888 48.5387 37.2587 48.4258 37.2507C48.313 37.2427 48.1996 37.257 48.0923 37.2928C47.985 37.3286 47.8857 37.3852 47.8003 37.4594C47.7148 37.5336 47.6448 37.6238 47.5943 37.7251L46.6758 39.562C46.6252 39.6632 46.5951 39.7734 46.5871 39.8862C46.5791 39.9991 46.5934 40.1124 46.6292 40.2198C46.665 40.3271 46.7216 40.4263 46.7958 40.5118C46.87 40.5972 46.9602 40.6673 47.0614 40.7178C47.1627 40.7684 47.2728 40.7985 47.3857 40.8065C47.4986 40.8145 47.6119 40.8002 47.7192 40.7644C47.8266 40.7286 47.9258 40.672 48.0113 40.5978C48.0967 40.5237 48.1667 40.4334 48.2173 40.3322L49.1358 38.4953C49.1863 38.3941 49.2165 38.2839 49.2245 38.171C49.2325 38.0581 49.2182 37.9448 49.1824 37.8375C49.1465 37.7301 49.0899 37.6309 49.0158 37.5454C48.9416 37.46 48.8513 37.39 48.7501 37.3394ZM40.8675 39.562L39.949 37.7251C39.8985 37.6239 39.8285 37.5337 39.743 37.4596C39.6576 37.3855 39.5584 37.329 39.4511 37.2932C39.3439 37.2575 39.2306 37.2432 39.1178 37.2512C39.005 37.2592 38.8949 37.2894 38.7937 37.3399C38.6926 37.3905 38.6024 37.4605 38.5283 37.546C38.4542 37.6314 38.3976 37.7306 38.3619 37.8378C38.3261 37.9451 38.3118 38.0584 38.3199 38.1712C38.3279 38.284 38.358 38.3941 38.4086 38.4953L39.3281 40.3322C39.3755 40.4385 39.4439 40.5342 39.5292 40.6134C39.6145 40.6925 39.715 40.7536 39.8246 40.7929C39.9342 40.8321 40.0506 40.8488 40.1668 40.8418C40.283 40.8348 40.3966 40.8044 40.5007 40.7523C40.6048 40.7002 40.6973 40.6276 40.7725 40.5387C40.8478 40.4499 40.9043 40.3468 40.9385 40.2355C40.9728 40.1243 40.9842 40.0072 40.972 39.8915C40.9598 39.7757 40.9242 39.6636 40.8675 39.562Z" fill="black"/>
</g>
<defs>
<clipPath id="clip0_1_124">
<rect width="55" height="55" fill="white" transform="translate(0.65625 0.046875)"/>
</clipPath>
</defs>
</svg>
