<svg width="56" height="56" viewBox="0 0 56 56" fill="none" xmlns="http://www.w3.org/2000/svg">
<g clip-path="url(#clip0_1_132)">
<path d="M55.9863 3.79369C55.9906 2.78929 55.6028 1.84613 54.8949 1.13822C54.187 0.430309 53.2428 0.0435901 52.2405 0.047887C51.2383 0.0521839 50.2962 0.445348 49.5851 1.15541C49.2843 1.45619 48.7375 2.10609 48.4389 2.46595C48.3589 2.55525 48.2977 2.65976 48.2591 2.77324C48.2204 2.88671 48.205 3.00682 48.2138 3.12638C48.2226 3.24594 48.2555 3.36249 48.3103 3.46907C48.3652 3.57565 48.4411 3.67006 48.5333 3.74667C48.6255 3.82327 48.7322 3.88049 48.847 3.91491C48.9619 3.94932 49.0825 3.96023 49.2016 3.94697C49.3208 3.93371 49.436 3.89656 49.5405 3.83774C49.6449 3.77891 49.7365 3.69963 49.8096 3.60463C50.2779 3.04066 50.6657 2.59486 50.8462 2.41547C51.2222 2.03949 51.7195 1.83216 52.2481 1.83002H52.2556C52.7787 1.83002 53.2675 2.03197 53.6349 2.39935C53.8172 2.58105 53.9615 2.79728 54.0592 3.03541C54.157 3.27353 54.2063 3.52877 54.2042 3.78617C54.2034 4.04691 54.1511 4.30493 54.0505 4.54547C53.9498 4.78601 53.8028 5.00436 53.6177 5.18802C53.2815 5.52425 52.1256 6.44164 50.4702 7.59857C49.9736 6.74596 49.2621 6.03842 48.4068 5.54648C47.5515 5.05454 46.5821 4.79539 45.5954 4.79486H32.548C31.6818 4.79263 30.8237 4.96218 30.0235 5.29371C29.2232 5.62524 28.4967 6.11216 27.8858 6.72631L1.80274 32.8083C1.54315 33.0669 1.33734 33.3743 1.19721 33.7128C1.05709 34.0513 0.985415 34.4142 0.986337 34.7806C0.986337 35.5261 1.27638 36.2276 1.80382 36.755L19.2781 54.2283C19.5372 54.4877 19.8451 54.6934 20.1839 54.8335C20.5227 54.9736 20.8859 55.0453 21.2525 55.0447C21.9669 55.0447 22.6823 54.7729 23.227 54.2283L49.3079 28.1484C49.9221 27.5376 50.4091 26.811 50.7406 26.0108C51.0721 25.2105 51.2417 24.3525 51.2394 23.4863V10.4388C51.2394 10.0532 51.1996 9.67718 51.1255 9.3141C53.0118 8.01644 54.3954 6.93148 54.8777 6.44808C55.228 6.10027 55.5062 5.68678 55.6964 5.2313C55.8867 4.77582 55.9852 4.28729 55.9863 3.79369ZM49.4572 23.4863C49.4589 24.1183 49.3352 24.7445 49.0933 25.3284C48.8514 25.9124 48.496 26.4426 48.0479 26.8883L21.9658 52.9703C21.7763 53.1593 21.5196 53.2655 21.252 53.2655C20.9844 53.2655 20.7277 53.1593 20.5382 52.9703L3.06388 35.496C2.87374 35.3048 2.76847 35.0513 2.76847 34.7817C2.76847 34.512 2.87374 34.2585 3.06388 34.0673L29.1459 7.98636C29.5916 7.53851 30.1216 7.18345 30.7054 6.94173C31.2892 6.7 31.9151 6.57639 32.5469 6.57806H45.5943C46.2905 6.57856 46.9736 6.76708 47.5715 7.12368C48.1693 7.48029 48.6598 7.99175 48.991 8.60404C47.8516 9.35905 46.691 10.0816 45.5106 10.7707C45.1694 10.3971 44.7561 10.0964 44.2956 9.88678C43.8351 9.67717 43.337 9.563 42.8311 9.55116C42.3253 9.53931 41.8223 9.63004 41.3525 9.81785C40.8827 10.0057 40.4558 10.2867 40.0976 10.644C39.3968 11.3464 39.0032 12.2981 39.0032 13.2903C39.0032 14.2825 39.3968 15.2342 40.0976 15.9367C40.4447 16.2846 40.8571 16.5604 41.3112 16.7485C41.7652 16.9365 42.2519 17.033 42.7434 17.0324C43.7016 17.0324 44.6598 16.6671 45.3892 15.9367C45.8514 15.4738 46.1843 14.8979 46.3547 14.2663C46.5251 13.6347 46.527 12.9695 46.3603 12.337C47.4072 11.7265 48.4391 11.0908 49.4551 10.4302V23.4863H49.4572ZM41.9484 13.6894C42.0546 13.9006 42.2403 14.061 42.4647 14.1353C42.6891 14.2097 42.9339 14.1918 43.1451 14.0858C43.6672 13.8226 44.1871 13.5487 44.7027 13.2694C44.7061 13.5303 44.6572 13.7892 44.5588 14.0309C44.4605 14.2726 44.3147 14.4921 44.1302 14.6766C43.7623 15.0434 43.264 15.2494 42.7444 15.2494C42.2249 15.2494 41.7266 15.0434 41.3587 14.6766C40.9916 14.3087 40.7854 13.8101 40.7854 13.2903C40.7854 12.7705 40.9916 12.272 41.3587 11.904C41.6854 11.5764 42.1177 11.3752 42.5787 11.3362C43.0397 11.2973 43.4997 11.4231 43.8767 11.6913C43.3718 11.9663 42.8605 12.2338 42.3438 12.4938C42.2392 12.5463 42.146 12.619 42.0695 12.7076C41.993 12.7962 41.9347 12.899 41.898 13.0102C41.8613 13.1213 41.8469 13.2386 41.8555 13.3553C41.8642 13.4721 41.8957 13.586 41.9484 13.6905V13.6894Z" fill="black"/>
<path d="M27.5367 18.1968C27.3003 18.1968 27.0735 18.2907 26.9063 18.4579C26.7391 18.6251 26.6451 18.8519 26.6451 19.0884V37.9065C26.6451 38.143 26.7391 38.3698 26.9063 38.537C27.0735 38.7042 27.3003 38.7981 27.5367 38.7981C27.7732 38.7981 28 38.7042 28.1672 38.537C28.3344 38.3698 28.4283 38.143 28.4283 37.9065V19.0884C28.4283 18.8519 28.3344 18.6251 28.1672 18.4579C28 18.2907 27.7732 18.1968 27.5367 18.1968ZM23.4622 25.8506C22.7599 25.1495 21.8082 24.7558 20.8159 24.7558C19.8236 24.7558 18.8718 25.1495 18.1695 25.8506C17.4688 26.553 17.0752 27.5047 17.0752 28.4969C17.0752 29.4891 17.4688 30.4408 18.1695 31.1433C18.5168 31.4911 18.9295 31.7669 19.3837 31.9548C19.8379 32.1427 20.3248 32.2389 20.8164 32.2379C21.7746 32.2379 22.7328 31.8727 23.4622 31.1433C24.169 30.4364 24.5579 29.4965 24.5579 28.4975C24.5579 27.4984 24.169 26.5574 23.4622 25.8506ZM22.2021 29.8832C21.8343 30.25 21.3359 30.456 20.8164 30.456C20.2969 30.456 19.7986 30.25 19.4307 29.8832C19.0638 29.5153 18.8579 29.017 18.8579 28.4975C18.8579 27.9779 19.0638 27.4796 19.4307 27.1117C19.812 26.7282 20.3147 26.5381 20.8164 26.5381C21.074 26.5374 21.3291 26.5876 21.5672 26.6858C21.8053 26.784 22.0217 26.9283 22.2039 27.1103C22.386 27.2924 22.5304 27.5087 22.6288 27.7467C22.7271 27.9848 22.7774 28.2399 22.7769 28.4975C22.7769 29.0206 22.5728 29.5126 22.2021 29.8832ZM36.9039 25.8506C36.2016 25.1495 35.2499 24.7558 34.2576 24.7558C33.2653 24.7558 32.3135 25.1495 31.6112 25.8506C30.9104 26.553 30.5169 27.5047 30.5169 28.4969C30.5169 29.4891 30.9104 30.4408 31.6112 31.1433C31.9586 31.4911 32.3712 31.7669 32.8254 31.9547C33.2797 32.1426 33.7666 32.2388 34.2581 32.2379C35.2163 32.2379 36.1745 31.8727 36.9039 31.1433C37.6047 30.4408 37.9982 29.4891 37.9982 28.4969C37.9982 27.5047 37.6047 26.553 36.9039 25.8506ZM35.6438 29.8832C35.276 30.25 34.7776 30.456 34.2581 30.456C33.7386 30.456 33.2403 30.25 32.8724 29.8832C32.5055 29.5153 32.2996 29.017 32.2996 28.4975C32.2996 27.9779 32.5055 27.4796 32.8724 27.1117C33.2537 26.7282 33.7554 26.5381 34.2581 26.5381C34.7608 26.5381 35.2614 26.7282 35.6438 27.1106C36.011 27.4786 36.2172 27.9771 36.2172 28.4969C36.2172 29.0167 36.011 29.5153 35.6438 29.8832Z" fill="black"/>
</g>
<defs>
<clipPath id="clip0_1_132">
<rect width="55" height="55" fill="white" transform="translate(0.986328 0.046875)"/>
</clipPath>
</defs>
</svg>
