<svg width="56" height="56" viewBox="0 0 56 56" fill="none" xmlns="http://www.w3.org/2000/svg">
<g clip-path="url(#clip0_1_142)">
<path d="M38.8379 7.39453H36.0879C34.7881 7.39453 33.7031 8.31836 33.4453 9.54297C25.1821 13.4832 16.3523 16.1039 7.27737 17.3096C6.50393 17.417 5.84865 17.8252 5.41897 18.416H3.01272C2.29762 18.416 1.6118 18.7001 1.10615 19.2057C0.6005 19.7114 0.316428 20.3972 0.316428 21.1123V26.623C0.315013 26.978 0.383711 27.3298 0.518579 27.6582C0.653447 27.9865 0.85183 28.285 1.10234 28.5366C1.35286 28.7881 1.65057 28.9876 1.9784 29.1238C2.30624 29.26 2.65773 29.3301 3.01272 29.3301H5.41897C5.84865 29.9102 6.50393 30.3291 7.27737 30.4365L7.68557 30.4902L11.918 45.7227C12.2403 46.8828 13.3145 47.6992 14.5176 47.6992H20.4688C20.6967 47.6992 20.9153 47.6087 21.0764 47.4475C21.2376 47.2864 21.3281 47.0678 21.3281 46.8398C21.3281 46.6119 21.2376 46.3933 21.0764 46.2322C20.9153 46.071 20.6967 45.9805 20.4688 45.9805H20.1895L16.3545 32.1445C25.378 34.3467 31.8233 37.4082 33.4346 38.2031C33.5625 38.8097 33.8947 39.3539 34.3757 39.745C34.8567 40.136 35.4573 40.3501 36.0772 40.3516H38.8272C39.1813 40.3516 39.5319 40.2818 39.859 40.1463C40.1861 40.0108 40.4834 39.8122 40.7337 39.5618C40.9841 39.3115 41.1827 39.0142 41.3182 38.6871C41.4537 38.36 41.5235 38.0094 41.5235 37.6553V10.0908C41.5206 9.37944 41.2368 8.698 40.7338 8.19498C40.2307 7.69195 39.5493 7.4081 38.8379 7.40527V7.39453ZM4.91408 27.6006H3.00197C2.46486 27.6006 2.03518 27.1709 2.03518 26.6338V21.1016C2.03518 20.5645 2.46486 20.1348 3.00197 20.1348H4.90334V27.5898L4.91408 27.6006ZM18.417 45.9697H14.5176C14.0879 45.9697 13.6905 45.6797 13.5723 45.2607L9.55471 30.7588C11.1999 31.0262 12.837 31.3414 14.4639 31.7041L18.4278 45.9805L18.417 45.9697ZM39.8155 37.6553C39.8155 38.1924 39.3858 38.6221 38.8487 38.6221H36.0879C35.5508 38.6221 35.1104 38.1924 35.1104 37.6553V17.4492C35.1104 17.2213 35.0198 17.0027 34.8587 16.8415C34.6975 16.6804 34.4789 16.5898 34.251 16.5898C34.0231 16.5898 33.8045 16.6804 33.6433 16.8415C33.4822 17.0027 33.3916 17.2213 33.3916 17.4492V36.2695C25.1872 32.4767 16.4608 29.9348 7.50295 28.7285C7.00881 28.6641 6.63283 28.2451 6.63283 27.7617V19.9844C6.63283 19.501 7.00881 19.082 7.49221 19.0176C16.45 17.8111 25.1764 15.2692 33.3809 11.4766V13.7646C33.3809 13.9926 33.4714 14.2112 33.6326 14.3723C33.7938 14.5335 34.0123 14.624 34.2403 14.624C34.4682 14.624 34.6868 14.5335 34.8479 14.3723C35.0091 14.2112 35.0996 13.9926 35.0996 13.7646V10.1016C35.0996 9.56445 35.5401 9.11328 36.0879 9.11328H38.8379C39.375 9.11328 39.8155 9.55371 39.8155 10.0908V37.6553ZM54.4571 23.0137H45.2725C45.0446 23.0137 44.826 23.1042 44.6648 23.2654C44.5037 23.4265 44.4131 23.6451 44.4131 23.873C44.4131 24.101 44.5037 24.3196 44.6648 24.4807C44.826 24.6419 45.0446 24.7324 45.2725 24.7324H54.4571C54.685 24.7324 54.9036 24.6419 55.0647 24.4807C55.2259 24.3196 55.3164 24.101 55.3164 23.873C55.3164 23.6451 55.2259 23.4265 55.0647 23.2654C54.9036 23.1042 54.685 23.0137 54.4571 23.0137ZM52.4912 14.3447C52.4014 14.1354 52.2322 13.9703 52.0207 13.8857C51.8092 13.8011 51.5727 13.8039 51.3633 13.8936L50.4395 14.291C50.3325 14.3332 50.2351 14.3964 50.153 14.4769C50.0709 14.5574 50.0058 14.6535 49.9616 14.7597C49.9173 14.8658 49.8948 14.9797 49.8953 15.0947C49.8959 15.2096 49.9195 15.3233 49.9648 15.429C50.0101 15.5347 50.0761 15.6302 50.159 15.7099C50.2419 15.7896 50.3399 15.8519 50.4473 15.893C50.5546 15.9341 50.6692 15.9533 50.7841 15.9494C50.899 15.9454 51.0119 15.9185 51.1162 15.8701L52.0401 15.4834C52.145 15.439 52.2401 15.3741 52.3198 15.2926C52.3994 15.2111 52.4621 15.1145 52.5041 15.0085C52.5461 14.9026 52.5666 14.7893 52.5644 14.6753C52.5621 14.5614 52.5373 14.449 52.4912 14.3447ZM48.8174 15.9238C48.7276 15.7145 48.5583 15.5494 48.3468 15.4648C48.1353 15.3802 47.8989 15.383 47.6895 15.4727L44.9287 16.6543C44.8218 16.6965 44.7244 16.7597 44.6423 16.8402C44.5602 16.9207 44.4951 17.0168 44.4508 17.1229C44.4066 17.2291 44.384 17.343 44.3846 17.458C44.3852 17.5729 44.4088 17.6866 44.4541 17.7923C44.4994 17.898 44.5654 17.9935 44.6483 18.0732C44.7311 18.1529 44.8292 18.2151 44.9365 18.2563C45.0439 18.2974 45.1584 18.3166 45.2733 18.3126C45.3882 18.3087 45.5012 18.2818 45.6055 18.2334L48.3662 17.0518C48.5756 16.9619 48.7407 16.7927 48.8253 16.5812C48.9099 16.3697 48.907 16.1332 48.8174 15.9238ZM52.0401 32.2734L51.1162 31.876C51.0119 31.8276 50.899 31.8007 50.7841 31.7967C50.6692 31.7928 50.5546 31.812 50.4473 31.8531C50.3399 31.8942 50.2419 31.9565 50.159 32.0362C50.0761 32.1159 50.0101 32.2114 49.9648 32.3171C49.9195 32.4228 49.8959 32.5365 49.8953 32.6514C49.8948 32.7664 49.9173 32.8803 49.9616 32.9864C50.0058 33.0925 50.0709 33.1887 50.153 33.2692C50.2351 33.3497 50.3325 33.4129 50.4395 33.4551L51.3633 33.8525C51.5727 33.9422 51.8092 33.945 52.0207 33.8604C52.2322 33.7758 52.4014 33.6107 52.4912 33.4014C52.5373 33.2971 52.5621 33.1847 52.5644 33.0708C52.5666 32.9568 52.5461 32.8435 52.5041 32.7376C52.4621 32.6316 52.3994 32.535 52.3198 32.4535C52.2401 32.372 52.145 32.3071 52.0401 32.2627V32.2734ZM48.3662 30.6943L45.6055 29.5127C45.3975 29.4307 45.1658 29.433 44.9594 29.519C44.7531 29.6051 44.5884 29.7682 44.5004 29.9736C44.4123 30.1791 44.4078 30.4108 44.4878 30.6196C44.5677 30.8284 44.7259 30.9977 44.9287 31.0918L47.6895 32.2734C47.8989 32.3631 48.1353 32.3659 48.3468 32.2813C48.5583 32.1967 48.7276 32.0316 48.8174 31.8223C48.907 31.6129 48.9099 31.3764 48.8253 31.1649C48.7407 30.9534 48.5756 30.7842 48.3662 30.6943Z" fill="black"/>
</g>
<defs>
<clipPath id="clip0_1_142">
<rect width="55" height="55" fill="white" transform="translate(0.316406 0.046875)"/>
</clipPath>
</defs>
</svg>
